<svg width="24" height="25" viewBox="0 0 24 25" fill="none" xmlns="http://www.w3.org/2000/svg">
<path fill-rule="evenodd" clip-rule="evenodd" d="M12 22.2957C14.5461 22.2957 16.9879 21.2843 18.7882 19.4839C20.5886 17.6836 21.6 15.2418 21.6 12.6957C21.6 10.1496 20.5886 7.70783 18.7882 5.90748C16.9879 4.10713 14.5461 3.0957 12 3.0957C9.45395 3.0957 7.01215 4.10713 5.2118 5.90748C3.41145 7.70783 2.40002 10.1496 2.40002 12.6957C2.40002 15.2418 3.41145 17.6836 5.2118 19.4839C7.01215 21.2843 9.45395 22.2957 12 22.2957ZM16.4484 11.1441C16.667 10.9178 16.788 10.6147 16.7852 10.3C16.7825 9.98539 16.6563 9.68441 16.4338 9.46192C16.2113 9.23943 15.9103 9.11323 15.5957 9.11049C15.2811 9.10776 14.9779 9.22871 14.7516 9.4473L10.8 13.3989L9.24842 11.8473C9.0221 11.6287 8.71898 11.5078 8.40434 11.5105C8.08971 11.5132 7.78873 11.6394 7.56624 11.8619C7.34375 12.0844 7.21755 12.3854 7.21482 12.7C7.21208 13.0147 7.33303 13.3178 7.55162 13.5441L9.95162 15.9441C10.1767 16.1691 10.4818 16.2954 10.8 16.2954C11.1182 16.2954 11.4234 16.1691 11.6484 15.9441L16.4484 11.1441Z" fill="white"/>
</svg>
