<svg width="34" height="34" viewBox="0 0 34 34" fill="none" xmlns="http://www.w3.org/2000/svg">
<path d="M5.80333 29.2691C5.05075 29.2691 4.40649 29.0011 3.87056 28.4652C3.33463 27.9293 3.06667 27.285 3.06667 26.5324V11.4808C3.06667 10.7282 3.33463 10.0839 3.87056 9.54798C4.40649 9.01205 5.05075 8.74408 5.80333 8.74408H11.2767V6.00742C11.2767 5.25484 11.5446 4.61058 12.0806 4.07465C12.6165 3.53872 13.2607 3.27075 14.0133 3.27075H19.4867C20.2393 3.27075 20.8835 3.53872 21.4194 4.07465C21.9554 4.61058 22.2233 5.25484 22.2233 6.00742V8.74408H27.6967C28.4492 8.74408 29.0935 9.01205 29.6294 9.54798C30.1654 10.0839 30.4333 10.7282 30.4333 11.4808V26.5324C30.4333 27.285 30.1654 27.9293 29.6294 28.4652C29.0935 29.0011 28.4492 29.2691 27.6967 29.2691H5.80333ZM5.80333 26.5324H27.6967V11.4808H5.80333V26.5324ZM14.0133 8.74408H19.4867V6.00742H14.0133V8.74408Z" fill="#386B6B"/>
</svg>
