<svg width="34" height="34" viewBox="0 0 34 34" fill="none" xmlns="http://www.w3.org/2000/svg">
<path d="M15.3817 31.9844V29.2475C12.5308 28.9282 10.0848 27.748 8.04353 25.7067C6.0023 23.6655 4.82204 21.2195 4.50274 18.3686H1.7659V15.6317H4.50274C4.82204 12.7809 6.0023 10.3348 8.04353 8.29358C10.0848 6.25235 12.5308 5.07209 15.3817 4.75279V2.01595H18.1185V4.75279C20.9694 5.07209 23.4155 6.25235 25.4567 8.29358C27.4979 10.3348 28.6782 12.7809 28.9975 15.6317H31.7343V18.3686H28.9975C28.6782 21.2195 27.4979 23.6655 25.4567 25.7067C23.4155 27.748 20.9694 28.9282 18.1185 29.2475V31.9844H15.3817ZM16.7501 26.5791C19.3957 26.5791 21.6536 25.644 23.5238 23.7738C25.394 21.9037 26.3291 19.6458 26.3291 17.0002C26.3291 14.3545 25.394 12.0966 23.5238 10.2265C21.6536 8.3563 19.3957 7.42121 16.7501 7.42121C14.1045 7.42121 11.8466 8.3563 9.97643 10.2265C8.10625 12.0966 7.17116 14.3545 7.17116 17.0002C7.17116 19.6458 8.10625 21.9037 9.97643 23.7738C11.8466 25.644 14.1045 26.5791 16.7501 26.5791ZM16.7501 22.4738C15.2448 22.4738 13.9563 21.9379 12.8843 20.8659C11.8124 19.794 11.2764 18.5054 11.2764 17.0002C11.2764 15.4949 11.8124 14.2063 12.8843 13.1344C13.9563 12.0624 15.2448 11.5265 16.7501 11.5265C18.2554 11.5265 19.544 12.0624 20.6159 13.1344C21.6878 14.2063 22.2238 15.4949 22.2238 17.0002C22.2238 18.5054 21.6878 19.794 20.6159 20.8659C19.544 21.9379 18.2554 22.4738 16.7501 22.4738ZM16.7501 19.737C17.5027 19.737 18.147 19.469 18.683 18.9331C19.219 18.3971 19.487 17.7528 19.487 17.0002C19.487 16.2475 19.219 15.6032 18.683 15.0673C18.147 14.5313 17.5027 14.2633 16.7501 14.2633C15.9975 14.2633 15.3532 14.5313 14.8172 15.0673C14.2812 15.6032 14.0133 16.2475 14.0133 17.0002C14.0133 17.7528 14.2812 18.3971 14.8172 18.9331C15.3532 19.469 15.9975 19.737 16.7501 19.737Z" fill="#397F52"/>
</svg>
