<svg width="34" height="34" viewBox="0 0 34 34" fill="none" xmlns="http://www.w3.org/2000/svg">
<path d="M21.355 29.269L13.145 26.3955L6.78225 28.8585C6.32614 29.041 5.90423 28.9897 5.51654 28.7046C5.12884 28.4195 4.935 28.0375 4.935 27.5586V8.40195C4.935 8.10548 5.02052 7.84322 5.19156 7.61516C5.3626 7.38711 5.59636 7.21607 5.89283 7.10204L13.145 4.63904L21.355 7.51254L27.7177 5.04954C28.1739 4.86709 28.5958 4.91841 28.9835 5.20348C29.3712 5.48855 29.565 5.87054 29.565 6.34945V25.5061C29.565 25.8026 29.4795 26.0649 29.3084 26.2929C29.1374 26.521 28.9036 26.692 28.6072 26.806L21.355 29.269ZM19.9867 25.9166V9.90712L14.5133 7.99145V24.001L19.9867 25.9166ZM22.7233 25.9166L26.8283 24.5483V8.33354L22.7233 9.90712V25.9166ZM7.67166 25.5745L11.7767 24.001V7.99145L7.67166 9.35979V25.5745Z" fill="#397F52"/>
</svg>
