<svg width="34" height="34" viewBox="0 0 34 34" fill="none" xmlns="http://www.w3.org/2000/svg">
<path d="M15.8817 17.0001C14.3764 17.0001 13.0878 16.4641 12.0159 15.3922C10.944 14.3203 10.408 13.0317 10.408 11.5264C10.408 10.0211 10.944 8.73254 12.0159 7.66061C13.0878 6.58868 14.3764 6.05272 15.8817 6.05272C17.387 6.05272 18.6756 6.58868 19.7475 7.66061C20.8194 8.73254 21.3554 10.0211 21.3554 11.5264C21.3554 13.0317 20.8194 14.3203 19.7475 15.3922C18.6756 16.4641 17.387 17.0001 15.8817 17.0001ZM15.8817 14.2632C16.6343 14.2632 17.2786 13.9953 17.8146 13.4593C18.3506 12.9233 18.6185 12.279 18.6185 11.5264C18.6185 10.7738 18.3506 10.1295 17.8146 9.59351C17.2786 9.05754 16.6343 8.78956 15.8817 8.78956C15.1291 8.78956 14.4848 9.05754 13.9488 9.59351C13.4128 10.1295 13.1449 10.7738 13.1449 11.5264C13.1449 12.279 13.4128 12.9233 13.9488 13.4593C14.4848 13.9953 15.1291 14.2632 15.8817 14.2632ZM31.0712 32.7369L26.6922 28.358C26.2133 28.6317 25.7001 28.8597 25.1527 29.0422C24.6054 29.2246 24.0238 29.3159 23.408 29.3159C21.6975 29.3159 20.2435 28.7172 19.0462 27.5198C17.8488 26.3225 17.2501 24.8685 17.2501 23.158C17.2501 21.4475 17.8488 19.9935 19.0462 18.7961C20.2435 17.5988 21.6975 17.0001 23.408 17.0001C25.1185 17.0001 26.5725 17.5988 27.7699 18.7961C28.9672 19.9935 29.5659 21.4475 29.5659 23.158C29.5659 23.7738 29.4747 24.3554 29.2922 24.9027C29.1098 25.4501 28.8817 25.9632 28.608 26.4422L32.987 30.8211L31.0712 32.7369ZM23.408 26.579C24.3659 26.579 25.1756 26.2483 25.837 25.5869C26.4984 24.9255 26.8291 24.1159 26.8291 23.158C26.8291 22.2001 26.4984 21.3904 25.837 20.729C25.1756 20.0676 24.3659 19.7369 23.408 19.7369C22.4501 19.7369 21.6405 20.0676 20.9791 20.729C20.3177 21.3904 19.987 22.2001 19.987 23.158C19.987 24.1159 20.3177 24.9255 20.9791 25.5869C21.6405 26.2483 22.4501 26.579 23.408 26.579ZM4.93433 27.9475V24.1501C4.93433 23.3746 5.12819 22.6562 5.51591 21.9948C5.90362 21.3334 6.43959 20.8317 7.1238 20.4896C8.28696 19.8966 9.59836 19.3948 11.058 18.9843C12.5177 18.5738 14.137 18.3685 15.9159 18.3685C15.6422 18.779 15.4084 19.2181 15.2146 19.6856C15.0207 20.1532 14.8668 20.6378 14.7527 21.1396C13.3843 21.2536 12.1642 21.4874 11.0922 21.8409C10.0203 22.1944 9.11941 22.565 8.38959 22.9527C8.16152 23.0668 7.98476 23.2321 7.85933 23.4488C7.73389 23.6654 7.67117 23.8992 7.67117 24.1501V25.2106H14.7527C14.8668 25.7124 15.0207 26.1913 15.2146 26.6475C15.4084 27.1036 15.6422 27.5369 15.9159 27.9475H4.93433Z" fill="#A19B12"/>
</svg>
