<svg width="34" height="34" viewBox="0 0 34 34" fill="none" xmlns="http://www.w3.org/2000/svg">
<path d="M3.92113 25.4501L1.69745 23.8422L8.53955 12.8948L12.6448 17.6843L18.1185 8.78957L21.8474 14.3659C21.3229 14.3887 20.8268 14.4514 20.3593 14.554C19.8917 14.6567 19.4299 14.7992 18.9738 14.9817L18.2211 13.8527L13.0211 22.3027L8.88166 17.479L3.92113 25.4501ZM29.8527 32.0527L25.5764 27.7764C25.1203 28.0957 24.6128 28.3352 24.054 28.4948C23.4953 28.6545 22.9194 28.7343 22.3264 28.7343C20.6159 28.7343 19.1619 28.1356 17.9646 26.9383C16.7672 25.7409 16.1685 24.2869 16.1685 22.5764C16.1685 20.8659 16.7672 19.4119 17.9646 18.2146C19.1619 17.0172 20.6159 16.4185 22.3264 16.4185C24.0369 16.4185 25.4909 17.0172 26.6882 18.2146C27.8856 19.4119 28.4843 20.8659 28.4843 22.5764C28.4843 23.1694 28.4045 23.7453 28.2448 24.304C28.0852 24.8628 27.8457 25.3817 27.5264 25.8606L31.8027 30.1027L29.8527 32.0527ZM22.3264 25.9975C23.2843 25.9975 24.0939 25.6668 24.7553 25.0054C25.4167 24.344 25.7474 23.5343 25.7474 22.5764C25.7474 21.6185 25.4167 20.8089 24.7553 20.1475C24.0939 19.4861 23.2843 19.1554 22.3264 19.1554C21.3685 19.1554 20.5589 19.4861 19.8974 20.1475C19.236 20.8089 18.9053 21.6185 18.9053 22.5764C18.9053 23.5343 19.236 24.344 19.8974 25.0054C20.5589 25.6668 21.3685 25.9975 22.3264 25.9975ZM25.3711 15.0501C24.9378 14.8676 24.4874 14.7194 24.0198 14.6054C23.5523 14.4913 23.0676 14.4229 22.5659 14.4001L29.579 3.31589L31.8027 4.92378L25.3711 15.0501Z" fill="#386B6B"/>
</svg>
