<svg width="34" height="34" viewBox="0 0 34 34" fill="none" xmlns="http://www.w3.org/2000/svg">
<path d="M17.25 24.4799C18.8008 24.4799 20.209 24.0409 21.4747 23.1629C22.7404 22.2849 23.6584 21.1275 24.2285 19.6908H10.2715C10.8416 21.1275 11.7596 22.2849 13.0253 23.1629C14.291 24.0409 15.6992 24.4799 17.25 24.4799ZM11.503 15.5858L13.0082 14.149L14.4449 15.5858L15.8817 14.149L13.0082 11.2071L10.0662 14.149L11.503 15.5858ZM20.0551 15.5858L21.4918 14.149L22.997 15.5858L24.4338 14.149L21.4918 11.2071L18.6183 14.149L20.0551 15.5858ZM17.25 30.6374C15.3571 30.6374 13.5783 30.2782 11.9135 29.5599C10.2487 28.8415 8.80054 27.8665 7.56904 26.635C6.33754 25.4035 5.3626 23.9554 4.64423 22.2906C3.92585 20.6258 3.56667 18.8469 3.56667 16.9541C3.56667 15.0612 3.92585 13.2824 4.64423 11.6176C5.3626 9.95278 6.33754 8.50463 7.56904 7.27313C8.80054 6.04163 10.2487 5.06669 11.9135 4.34831C13.5783 3.62994 15.3571 3.27075 17.25 3.27075C19.1429 3.27075 20.9217 3.62994 22.5865 4.34831C24.2513 5.06669 25.6995 6.04163 26.931 7.27313C28.1625 8.50463 29.1374 9.95278 29.8558 11.6176C30.5741 13.2824 30.9333 15.0612 30.9333 16.9541C30.9333 18.8469 30.5741 20.6258 29.8558 22.2906C29.1374 23.9554 28.1625 25.4035 26.931 26.635C25.6995 27.8665 24.2513 28.8415 22.5865 29.5599C20.9217 30.2782 19.1429 30.6374 17.25 30.6374ZM17.25 27.9008C20.3059 27.9008 22.8944 26.8403 25.0153 24.7194C27.1362 22.5985 28.1967 20.01 28.1967 16.9541C28.1967 13.8981 27.1362 11.3097 25.0153 9.18879C22.8944 7.06788 20.3059 6.00742 17.25 6.00742C14.1941 6.00742 11.6056 7.06788 9.48471 9.18879C7.36379 11.3097 6.30333 13.8981 6.30333 16.9541C6.30333 20.01 7.36379 22.5985 9.48471 24.7194C11.6056 26.8403 14.1941 27.9008 17.25 27.9008Z" fill="#A19B12"/>
</svg>
