<svg width="8" height="29" viewBox="0 0 8 29" fill="none" xmlns="http://www.w3.org/2000/svg">
<path d="M1.33333 2.6958C1.33333 4.16856 2.52724 5.36247 4 5.36247C5.47276 5.36247 6.66667 4.16856 6.66667 2.6958C6.66667 1.22304 5.47276 0.029134 4 0.029134C2.52724 0.029134 1.33333 1.22304 1.33333 2.6958ZM3.64645 28.0494C3.84171 28.2446 4.15829 28.2446 4.35355 28.0494L7.53553 24.8674C7.7308 24.6721 7.7308 24.3555 7.53553 24.1603C7.34027 23.965 7.02369 23.965 6.82843 24.1603L4 26.9887L1.17157 24.1603C0.976311 23.965 0.659728 23.965 0.464466 24.1603C0.269204 24.3555 0.269204 24.6721 0.464466 24.8674L3.64645 28.0494ZM3.5 2.6958V27.6958H4.5V2.6958H3.5Z" fill="#9E9E9E"/>
</svg>
