<svg width="34" height="34" viewBox="0 0 34 34" fill="none" xmlns="http://www.w3.org/2000/svg">
<path d="M1.6973 27.9025V22.4289C1.6973 21.6534 1.96528 21.0034 2.50124 20.4789C3.03721 19.9543 3.68151 19.692 4.43414 19.692H8.91572C9.37186 19.692 9.80519 19.8061 10.2157 20.0341C10.6262 20.2622 10.9569 20.5701 11.2078 20.9578C11.8692 21.8473 12.6846 22.5429 13.6539 23.0447C14.6232 23.5464 15.6552 23.7973 16.7499 23.7973C17.8675 23.7973 18.9109 23.5464 19.8802 23.0447C20.8495 22.5429 21.6534 21.8473 22.292 20.9578C22.5885 20.5701 22.9363 20.2622 23.3355 20.0341C23.7346 19.8061 24.1508 19.692 24.5841 19.692H29.0657C29.8412 19.692 30.4912 19.9543 31.0157 20.4789C31.5403 21.0034 31.8026 21.6534 31.8026 22.4289V27.9025H22.2236V24.7894C21.4254 25.3596 20.5644 25.7929 19.6407 26.0894C18.717 26.3859 17.7534 26.5341 16.7499 26.5341C15.7692 26.5341 14.8113 26.3802 13.8762 26.0723C12.9412 25.7644 12.0745 25.3254 11.2762 24.7552V27.9025H1.6973ZM16.7499 22.4289C15.8833 22.4289 15.0622 22.2293 14.2868 21.8302C13.5113 21.4311 12.8613 20.878 12.3368 20.171C11.949 19.6008 11.4644 19.1504 10.8828 18.8197C10.3012 18.489 9.66835 18.3236 8.98414 18.3236C9.48589 17.4797 10.5464 16.8126 12.1657 16.3223C13.785 15.8319 15.3131 15.5868 16.7499 15.5868C18.1868 15.5868 19.7148 15.8319 21.3341 16.3223C22.9534 16.8126 24.014 17.4797 24.5157 18.3236C23.8543 18.3236 23.2271 18.489 22.6341 18.8197C22.0412 19.1504 21.5508 19.6008 21.1631 20.171C20.6613 20.9008 20.0227 21.4596 19.2473 21.8473C18.4719 22.235 17.6394 22.4289 16.7499 22.4289ZM5.80256 18.3236C4.66221 18.3236 3.69291 17.9245 2.89466 17.1262C2.09642 16.328 1.6973 15.3587 1.6973 14.2183C1.6973 13.0552 2.09642 12.0802 2.89466 11.2933C3.69291 10.5065 4.66221 10.1131 5.80256 10.1131C6.96572 10.1131 7.94072 10.5065 8.72756 11.2933C9.5144 12.0802 9.90782 13.0552 9.90782 14.2183C9.90782 15.3587 9.5144 16.328 8.72756 17.1262C7.94072 17.9245 6.96572 18.3236 5.80256 18.3236ZM27.6973 18.3236C26.5569 18.3236 25.5876 17.9245 24.7894 17.1262C23.9912 16.328 23.592 15.3587 23.592 14.2183C23.592 13.0552 23.9912 12.0802 24.7894 11.2933C25.5876 10.5065 26.5569 10.1131 27.6973 10.1131C28.8605 10.1131 29.8355 10.5065 30.6223 11.2933C31.4091 12.0802 31.8026 13.0552 31.8026 14.2183C31.8026 15.3587 31.4091 16.328 30.6223 17.1262C29.8355 17.9245 28.8605 18.3236 27.6973 18.3236ZM16.7499 14.2183C15.6096 14.2183 14.6403 13.8192 13.842 13.021C13.0438 12.2227 12.6447 11.2534 12.6447 10.1131C12.6447 8.94992 13.0438 7.97492 13.842 7.18808C14.6403 6.40123 15.6096 6.00781 16.7499 6.00781C17.9131 6.00781 18.8881 6.40123 19.6749 7.18808C20.4618 7.97492 20.8552 8.94992 20.8552 10.1131C20.8552 11.2534 20.4618 12.2227 19.6749 13.021C18.8881 13.8192 17.9131 14.2183 16.7499 14.2183Z" fill="#519023"/>
</svg>
